<svg width="32" height="32" viewBox="0 0 32 32" fill="none" xmlns="http://www.w3.org/2000/svg">
<path fill-rule="evenodd" clip-rule="evenodd" d="M16 5.99952C15.0878 4.78534 13.6356 4 12 4H6C4.89543 4 4 4.89543 4 6V26C4 27.1046 4.89543 28 6 28H15C15.3643 28 15.7058 27.9026 16 27.7324C16.2942 27.9026 16.6357 28 17 28H20.8889C21.1745 28 21.4465 27.8779 21.6363 27.6644L27.7474 20.7894C27.9101 20.6063 28 20.3699 28 20.125V6C28 4.89543 27.1046 4 26 4H20C18.3644 4 16.9122 4.78534 16 5.99952ZM15 9V26H6V6H12C13.6569 6 15 7.34315 15 9ZM20 6C18.3431 6 17 7.34315 17 9V26H19.8889V21.125C19.8889 20.0204 20.7843 19.125 21.8889 19.125H26V6H20ZM24.7732 21.125H21.8889V24.3698L24.7732 21.125ZM7.50256 13H13.6318V11H7.50256V13ZM24.6644 13H18.5352V11H24.6644V13ZM7.50256 16.6775H13.6318V14.6775H7.50256V16.6775ZM24.6644 16.6775H18.5352V14.6775H24.6644V16.6775ZM7.50256 20.355H13.6318V18.355H7.50256V20.355Z" fill="#001E27"/>
</svg>
