<svg width="32" height="32" viewBox="0 0 32 32" fill="none" xmlns="http://www.w3.org/2000/svg">
<path fill-rule="evenodd" clip-rule="evenodd" d="M3 7.77768H7.77782L7.77778 3.00002L9.77778 3L9.77782 7.77768H14.5556V9.77768H9.77783V14.5556H7.77783V9.77768H3V7.77768ZM5.15155 18.1818L8.7777 21.808L12.404 18.1818L13.8182 19.596L10.1919 23.2222L13.8182 26.8484L12.404 28.2627L8.7777 24.6364L5.15156 28.2627L3.73733 26.8485L7.36349 23.2222L3.73733 19.596L5.15155 18.1818ZM29 9.77778H17.4444V7.77778H29V9.77778ZM17.4444 24.2222H29V22.2222H17.4444V24.2222ZM24.6667 18.8889C24.6667 19.6866 24.02 20.3333 23.2222 20.3333C22.4245 20.3333 21.7778 19.6866 21.7778 18.8889C21.7778 18.0911 22.4245 17.4444 23.2222 17.4444C24.02 17.4444 24.6667 18.0911 24.6667 18.8889ZM23.2222 29C24.02 29 24.6667 28.3533 24.6667 27.5556C24.6667 26.7578 24.02 26.1111 23.2222 26.1111C22.4245 26.1111 21.7778 26.7578 21.7778 27.5556C21.7778 28.3533 22.4245 29 23.2222 29Z" fill="#001E27"/>
</svg>
 