<svg width="32" height="32" viewBox="0 0 32 32" fill="none" xmlns="http://www.w3.org/2000/svg">
<path fill-rule="evenodd" clip-rule="evenodd" d="M8 8C8 6.89543 8.89543 6 10 6H28C29.1046 6 30 6.89543 30 8V18C30 19.1046 29.1046 20 28 20H10C8.89543 20 8 19.1046 8 18V8ZM28 8L10 8V18H28V8ZM2 13C2 11.8954 2.89543 11 4 11H7V13H4V24H24V21H26V24C26 25.1046 25.1046 26 24 26H4C2.89543 26 2 25.1046 2 24V13ZM19 16C20.6569 16 22 14.6569 22 13C22 11.3431 20.6569 10 19 10C17.3431 10 16 11.3431 16 13C16 14.6569 17.3431 16 19 16Z" fill="#001E27"/>
</svg>
