<svg width="14" height="26" viewBox="0 0 14 26" fill="none" xmlns="http://www.w3.org/2000/svg">
<path fill-rule="evenodd" clip-rule="evenodd" d="M11.6906 4.32724C10.6863 3.42157 9.34676 2.85796 7.77776 2.69161V0H5.77776V2.6854C4.2073 2.84379 2.86746 3.40874 1.86353 4.31775C0.645614 5.42052 0 6.96124 0 8.66654C0 10.4989 0.937046 11.8727 2.25086 12.7486C3.53503 13.6047 5.185 13.9999 6.77778 13.9999C8.07389 13.9999 9.31281 14.3269 10.1953 14.9153C11.0482 15.4838 11.5556 16.2767 11.5556 17.3332C11.5556 18.5156 11.1188 19.495 10.3511 20.1873C9.57659 20.8858 8.38719 21.3599 6.77778 21.3599V21.3598L6.76978 21.3599C5.16577 21.3727 3.97947 20.8998 3.20592 20.1994C2.43772 19.5039 2 18.5168 2 17.3332H0C0 19.0385 0.645614 20.5792 1.86353 21.682C2.86746 22.591 4.2073 23.156 5.77776 23.3143V25.9999H7.77776V23.3081C9.34676 23.1418 10.6863 22.5782 11.6906 21.6725C12.909 20.5736 13.5556 19.0397 13.5556 17.3332C13.5556 15.5009 12.6185 14.127 11.3047 13.2512C10.0205 12.395 8.37057 11.9999 6.77778 11.9999C5.48168 11.9999 4.24275 11.6728 3.36026 11.0845C2.5074 10.5159 2 9.72307 2 8.66654C2 7.48294 2.43772 6.49588 3.20592 5.80031C3.97947 5.0999 5.16577 4.627 6.76978 4.63983V4.63986H6.77778C8.38719 4.63986 9.57659 5.11399 10.3511 5.81249C11.1188 6.50475 11.5556 7.48414 11.5556 8.66654H13.5556C13.5556 6.96004 12.909 5.4261 11.6906 4.32724Z" fill="#001E27"/>
</svg>
