<svg width="24" height="24" viewBox="0 0 24 24" fill="none" xmlns="http://www.w3.org/2000/svg">
<path fill-rule="evenodd" clip-rule="evenodd" d="M7.5 4C5.567 4 4 5.567 4 7.5V16.5C4 18.433 5.567 20 7.5 20H16.5C18.433 20 20 18.433 20 16.5V7.5C20 5.567 18.433 4 16.5 4H7.5ZM2 7.5C2 4.46243 4.46243 2 7.5 2H16.5C19.5376 2 22 4.46243 22 7.5V16.5C22 19.5376 19.5376 22 16.5 22H7.5C4.46243 22 2 19.5376 2 16.5V7.5ZM12.4401 9.03245C11.8159 8.9399 11.1784 9.04651 10.6183 9.33713C10.0582 9.62776 9.60399 10.0876 9.3203 10.6512C9.0366 11.2149 8.93786 11.8536 9.03811 12.4766C9.13835 13.0996 9.43249 13.6751 9.87868 14.1213C10.3249 14.5675 10.9004 14.8616 11.5234 14.9619C12.1464 15.0621 12.7851 14.9634 13.3488 14.6797C13.9124 14.396 14.3722 13.9418 14.6629 13.3817C14.9535 12.8216 15.0601 12.1841 14.9675 11.5599C14.8731 10.9233 14.5764 10.3338 14.1213 9.87868C13.6662 9.42355 13.0767 9.12687 12.4401 9.03245ZM9.69715 7.56189C10.6306 7.07751 11.6931 6.89982 12.7334 7.05409C13.7946 7.21144 14.777 7.70592 15.5355 8.46447C16.2941 9.22302 16.7886 10.2054 16.9459 11.2666C17.1002 12.3069 16.9225 13.3694 16.4381 14.3028C15.9537 15.2363 15.1873 15.9933 14.2479 16.4662C13.3085 16.939 12.244 17.1036 11.2057 16.9365C10.1673 16.7694 9.20812 16.2792 8.46447 15.5355C7.72082 14.7919 7.23059 13.8327 7.06351 12.7943C6.89643 11.756 7.061 10.6915 7.53383 9.75205C8.00666 8.81265 8.76365 8.04626 9.69715 7.56189ZM17.4298 5.5C16.8775 5.5 16.4298 5.94772 16.4298 6.5C16.4298 7.05228 16.8775 7.5 17.4298 7.5H17.4398C17.9921 7.5 18.4398 7.05228 18.4398 6.5C18.4398 5.94772 17.9921 5.5 17.4398 5.5H17.4298Z" fill="white"/>
</svg>
