<svg width="32" height="32" viewBox="0 0 32 32" fill="none" xmlns="http://www.w3.org/2000/svg">
<path fill-rule="evenodd" clip-rule="evenodd" d="M12.3186 2.51436C12.495 2.19689 12.8296 2 13.1928 2H23.2628C23.6094 2 23.9312 2.17945 24.1134 2.47427C24.2956 2.76909 24.3122 3.13723 24.1572 3.44722L20.5651 10.6314H26.1399C26.5279 10.6314 26.8809 10.8559 27.0454 11.2072C27.21 11.5586 27.1565 11.9735 26.9081 12.2716L12.5224 29.5344C12.2399 29.8735 11.7684 29.9872 11.3623 29.8142C10.9562 29.6412 10.7116 29.2224 10.7603 28.7838L12.0755 16.9471H6C5.64568 16.9471 5.31781 16.7596 5.13813 16.4542C4.95844 16.1488 4.95377 15.7712 5.12584 15.4614L12.3186 2.51436ZM13.7812 4L7.69951 14.9471H13.1928C13.4772 14.9471 13.7482 15.0682 13.9379 15.2802C14.1276 15.4921 14.218 15.7748 14.1866 16.0575L13.1154 25.6987L24.0048 12.6314H18.9471C18.6005 12.6314 18.2786 12.4519 18.0964 12.1571C17.9142 11.8623 17.8976 11.4942 18.0526 11.1842L21.6447 4H13.7812Z" fill="#001E27"/>
</svg>
