<svg width="24" height="24" viewBox="0 0 24 24" fill="none" xmlns="http://www.w3.org/2000/svg">
<path fill-rule="evenodd" clip-rule="evenodd" d="M4 5C4 4.44772 4.44772 4 5 4C5.55228 4 6 4.44772 6 5C6 5.55228 5.55228 6 5 6C4.44772 6 4 5.55228 4 5ZM5 2C3.34315 2 2 3.34315 2 5C2 6.65685 3.34315 8 5 8C6.65685 8 8 6.65685 8 5C8 3.34315 6.65685 2 5 2ZM15.5 10C14.3088 10 13.1649 10.4765 12.3205 11.3268C11.4758 12.1774 11 13.3325 11 14.5385V20H13V14.5385H14C13 14.5385 13 14.538 13 14.5375L13 14.5365L13 14.5343L13 14.5296L13.0002 14.5183L13.0009 14.4887C13.0016 14.4659 13.003 14.437 13.0053 14.4029C13.0101 14.3349 13.0191 14.2441 13.0364 14.1377C13.0702 13.9297 13.1397 13.6366 13.2886 13.331C13.4392 13.0221 13.682 12.6791 14.0684 12.4149C14.4622 12.1456 14.9447 12 15.5 12C16.0553 12 16.5378 12.1456 16.9316 12.4149C17.318 12.6791 17.5608 13.0221 17.7114 13.331C17.8603 13.6366 17.9298 13.9297 17.9636 14.1377C17.9809 14.2441 17.9899 14.3349 17.9947 14.4029C17.997 14.437 17.9984 14.4659 17.9991 14.4887L17.9998 14.5183L18 14.5296L18 14.5343L18 14.5365L18 14.5375C18 14.538 18 14.5385 17 14.5385H18V20H20V14.5385C20 13.3325 19.5242 12.1774 18.6795 11.3268C17.8351 10.4765 16.6912 10 15.5 10ZM16 14.5502V21C16 21.5523 16.4477 22 17 22H21C21.5523 22 22 21.5523 22 21V14.5385C22 12.8066 21.3169 11.1443 20.0987 9.91754C18.8802 8.69058 17.2262 8 15.5 8C13.7738 8 12.1198 8.69058 10.9013 9.91754C9.68314 11.1443 9 12.8066 9 14.5385V21C9 21.5523 9.44772 22 10 22H14C14.5523 22 15 21.5523 15 21V14.5502L15.0005 14.5418C15.0016 14.5257 15.0043 14.4963 15.0105 14.4585C15.0236 14.378 15.0478 14.2865 15.0864 14.2074C15.1233 14.1317 15.1617 14.0902 15.1972 14.0659C15.2253 14.0467 15.3053 14 15.5 14C15.6947 14 15.7747 14.0467 15.8028 14.0659C15.8383 14.0902 15.8767 14.1317 15.9136 14.2074C15.9522 14.2865 15.9764 14.378 15.9895 14.4585C15.9957 14.4963 15.9984 14.5257 15.9995 14.5418L16 14.5502ZM2 10C2 9.44772 2.44772 9 3 9H7C7.55228 9 8 9.44772 8 10V21C8 21.5523 7.55228 22 7 22H3C2.44772 22 2 21.5523 2 21V10ZM4 11V20H6V11H4Z" fill="white"/>
</svg>
