<svg width="32" height="32" viewBox="0 0 32 32" fill="none" xmlns="http://www.w3.org/2000/svg">
<path fill-rule="evenodd" clip-rule="evenodd" d="M10 11L10 14H11V11C11 8.23858 13.2386 6 16 6C18.7614 6 21 8.23858 21 11V14H22V11C22 7.68629 19.3137 5 16 5C12.6863 5 10 7.68629 10 11ZM19 14V11C19 9.34314 17.6569 8 16 8C14.3431 8 13 9.34315 13 11V14H19ZM8 11L8 14C6.89543 14 6 14.8954 6 16V26C6 27.1046 6.89543 28 8 28H24C25.1046 28 26 27.1046 26 26V16C26 14.8954 25.1046 14 24 14V11C24 6.58172 20.4183 3 16 3C11.5817 3 8 6.58172 8 11ZM8 26V16H10L22 16H24V26H8Z" fill="#001E27"/>
</svg>
