<svg width="32" height="32" viewBox="0 0 32 32" fill="none" xmlns="http://www.w3.org/2000/svg">
<path d="M25 3H8C5.79086 3 4 4.79086 4 7V28C4 28.5523 4.44772 29 5 29H20C20.5523 29 21 28.5523 21 28V10.2214M25 3C20.8989 2.99922 20.9777 6.88044 20.9979 7.29649C20.9991 7.32206 21 7.34532 21 7.37091V10.2214M25 3V3C27.2091 3 29 4.79086 29 7V7.3325V9.22138C29 9.77367 28.5523 10.2214 28 10.2214H21" stroke="#001E27" stroke-width="2"/>
<path fill-rule="evenodd" clip-rule="evenodd" d="M12.5 6C10.567 6 9 7.567 9 9.5C9 11.433 10.567 13 12.5 13C14.433 13 16 11.433 16 9.5C16 7.567 14.433 6 12.5 6ZM7 18V15H18V18H7ZM18 22V19H7V22H18ZM18 26V23H7V26H18Z" fill="#001E27"/>
</svg>
