<svg width="32" height="32" viewBox="0 0 32 32" fill="none" xmlns="http://www.w3.org/2000/svg">
<path fill-rule="evenodd" clip-rule="evenodd" d="M15.5396 3.11225C15.8282 2.96259 16.1716 2.96258 16.4603 3.11224C18.3017 4.06707 20.4778 4.7954 22.2186 5.28775C23.0839 5.53247 23.8311 5.71598 24.3607 5.83804C24.6254 5.89903 24.8353 5.94457 24.9779 5.97465C25.0492 5.98969 25.1036 6.00085 25.1396 6.00815L25.1797 6.01617L25.1889 6.01801L25.1908 6.01838L25.1909 6.01838L25.191 6.01842C25.6608 6.10985 26 6.52136 26 7V19.9819C26 20.0735 25.9874 20.1648 25.9625 20.253C25.9432 20.3218 25.922 20.404 25.8979 20.4979C25.7672 21.0059 25.5486 21.8559 25.0449 22.7741C24.4346 23.8865 23.4217 25.0932 21.6711 26.1824C18.4341 28.1965 16.8047 28.8276 16.2457 28.9693C16.0844 29.0102 15.9155 29.0102 15.7542 28.9693C15.2067 28.8305 13.5835 28.2825 10.3217 26.1779C8.57552 25.0899 7.5645 23.885 6.95507 22.7741C6.45136 21.8559 6.23278 21.0059 6.10212 20.4979C6.07798 20.404 6.05684 20.3218 6.03746 20.253C6.01261 20.1648 6 20.0735 6 19.9819V19.9688V19.9555V19.942V19.9283V19.9144V19.9003V19.886V19.8716V19.857V19.8421V19.8271V19.8119V19.7965V19.781V19.7652V19.7493V19.7331V19.7168V19.7004V19.6837V19.6669V19.6499V19.6327V19.6153V19.5978V19.58V19.5622V19.5441V19.5259V19.5075V19.4889V19.4702V19.4512V19.4322V19.4129V19.3935V19.374V19.3542V19.3343V19.3143V19.294V19.2737V19.2531V19.2324V19.2116V19.1906V19.1694V19.1481V19.1266V19.105V19.0832V19.0612V19.0392V19.0169V18.9945V18.972V18.9493V18.9265V18.9035V18.8804V18.8572V18.8338V18.8102V18.7865V18.7627V18.7388V18.7147V18.6904V18.666V18.6415V18.6169V18.5921V18.5672V18.5421V18.517V18.4916V18.4662V18.4406V18.4149V18.3891V18.3632V18.3371V18.3109V18.2846V18.2581V18.2315V18.2048V18.178V18.1511V18.1241V18.0969V18.0696V18.0422V18.0147V17.987V17.9593V17.9314V17.9035V17.8754V17.8472V17.8189V17.7905V17.762V17.7334V17.7046V17.6758V17.6469V17.6178V17.5887V17.5594V17.5301V17.5007V17.4711V17.4415V17.4117V17.3819V17.352V17.322V17.2918V17.2616V17.2313V17.2009V17.1704V17.1399V17.1092V17.0785V17.0476V17.0167V16.9857V16.9546V16.9234V16.8922V16.8608V16.8294V16.7979V16.7663V16.7347V16.703V16.6712V16.6393V16.6073V16.5753V16.5432V16.511V16.4787V16.4464V16.414V16.3816V16.349V16.3165V16.2838V16.2511V16.2183V16.1854V16.1525V16.1195V16.0865V16.0534V16.0202V15.987V15.9538V15.9204V15.887V15.8536V15.8201V15.7866V15.753V15.7193V15.6856V15.6519V15.6181V15.5842V15.5503V15.5164V15.4824V15.4484V15.4143V15.3802V15.346V15.3118V15.2776V15.2433V15.209V15.1746V15.1402V15.1058V15.0714V15.0369V15.0023V14.9678V14.9332V14.8986V14.8639V14.8292V14.7945V14.7598V14.725V14.6902V14.6554V14.6206V14.5857V14.5508V14.5159V14.481V14.446V14.4111V14.3761V14.3411V14.3061V14.2711V14.236V14.201V14.1659V14.1308V14.0957V14.0606V14.0255V13.9904V13.9553V13.9201V13.885V13.8498V13.8147V13.7795V13.7444V13.7092V13.6741V13.6389V13.6038V13.5686V13.5335V13.4983V13.4632V13.4281V13.3929V13.3578V13.3227V13.2876V13.2525V13.2174V13.1824V13.1473V13.1123V13.0772V13.0422V13.0072V12.9722V12.9373V12.9023V12.8674V12.8325V12.7976V12.7627V12.7279V12.6931V12.6583V12.6235V12.5888V12.5541V12.5194V12.4847V12.4501V12.4155V12.3809V12.3464V12.3119V12.2774V12.243V12.2086V12.1742V12.1399V12.1056V12.0714V12.0372V12.003V11.9689V11.9348V11.9008V11.8668V11.8329V11.799V11.7651V11.7313V11.6975V11.6638V11.6302V11.5966V11.563V11.5295V11.4961V11.4627V11.4294V11.3961V11.3629V11.3297V11.2966V11.2636V11.2306V11.1977V11.1648V11.132V11.0993V11.0666V11.034V11.0015V10.969V10.9366V10.9043V10.872V10.8398V10.8077V10.7757V10.7437V10.7118V10.68V10.6483V10.6166V10.585V10.5535V10.5221V10.4907V10.4595V10.4283V10.3972V10.3662V10.3352V10.3044V10.2736V10.243V10.2124V10.1819V10.1515V10.1212V10.091V10.0608V10.0308V10.0009V9.97102V9.94127V9.91162V9.88207V9.85262V9.82326V9.79401V9.76486V9.73581V9.70686V9.67802V9.64928V9.62065V9.59212V9.5637V9.53539V9.50719V9.4791V9.45112V9.42325V9.3955V9.36785V9.34032V9.31291V9.28561V9.25843V9.23137V9.20443V9.1776V9.1509V9.12431V9.09785V9.07152V9.0453V9.01921V8.99325V8.96741V8.9417V8.91612V8.89066V8.86534V8.84015V8.81508V8.79015V8.76536V8.7407V8.71617V8.69178V8.66753V8.64341V8.61943V8.59559V8.57189V8.54834V8.52492V8.50165V8.47852V8.45553V8.43269V8.41V8.38745V8.36506V8.34281V8.32071V8.29876V8.27696V8.25532V8.23382V8.21248V8.1913V8.17027V8.1494V8.12869V8.10813V8.08774V8.0675V8.04742V8.02751V8.00776V7.98817V7.96875V7.94949V7.9304V7.91147V7.89271V7.87413V7.85571V7.83746V7.81938V7.80148V7.78374V7.76618V7.7488V7.73159V7.71456V7.6977V7.68103V7.66453V7.64821V7.63208V7.61612V7.60035V7.58476V7.56935V7.55413V7.5391V7.52425V7.50959V7.49512V7.48083V7.46674V7.45284V7.43913V7.42562V7.41229V7.39917V7.38623V7.3735V7.36096V7.34862V7.33647V7.32453V7.31279V7.30125V7.28991V7.27878V7.26784V7.25712V7.2466V7.23628V7.22618V7.21628V7.20659V7.19711V7.18784V7.17879V7.16994V7.16131V7.1529V7.1447V7.13671V7.12895V7.1214V7.11407V7.10696V7.10007V7.0934V7.08695V7.08073V7.07472V7.06895V7.0634V7.05808V7.05298V7.04811V7.04347V7.03906V7.03489V7.03094V7.02722V7.02374V7.0205V7.01749V7.01471V7.01217V7.00987V7.00781V7.00599V7.0044V7.00306V7.00196V7.0011V7.00049V7.00012C6 7.00004 6 7 7 7H6C6 6.52136 6.33916 6.10985 6.80896 6.01842C6.80902 6.01841 6.80907 6.0184 6.80913 6.01838L6.80917 6.01838L6.81106 6.01801L6.82034 6.01617L6.86037 6.00815C6.8964 6.00086 6.95084 5.98969 7.02213 5.97465C7.16474 5.94457 7.37461 5.89903 7.63927 5.83804C8.16892 5.71598 8.91612 5.53248 9.78141 5.28775C11.5222 4.7954 13.6982 4.06707 15.5396 3.11225ZM8 7.80723V7.81938V7.83746V7.85571V7.87413V7.89271V7.91147V7.9304V7.94949V7.96875V7.98817V8.00776V8.02751V8.04742V8.0675V8.08774V8.10813V8.12869V8.1494V8.17027V8.1913V8.21248V8.23382V8.25532V8.27696V8.29876V8.32071V8.34281V8.36506V8.38745V8.41V8.43269V8.45553V8.47852V8.50165V8.52492V8.54834V8.57189V8.59559V8.61943V8.64341V8.66753V8.69178V8.71617V8.7407V8.76536V8.79015V8.81508V8.84015V8.86534V8.89066V8.91612V8.9417V8.96741V8.99325V9.01921V9.0453V9.07152V9.09785V9.12431V9.1509V9.1776V9.20443V9.23137V9.25843V9.28561V9.31291V9.34032V9.36785V9.3955V9.42325V9.45112V9.4791V9.50719V9.53539V9.5637V9.59212V9.62065V9.64928V9.67802V9.70686V9.73581V9.76486V9.79401V9.82326V9.85262V9.88207V9.91162V9.94127V9.97102V10.0009V10.0308V10.0608V10.091V10.1212V10.1515V10.1819V10.2124V10.243V10.2736V10.3044V10.3352V10.3662V10.3972V10.4283V10.4595V10.4907V10.5221V10.5535V10.585V10.6166V10.6483V10.68V10.7118V10.7437V10.7757V10.8077V10.8398V10.872V10.9043V10.9366V10.969V11.0015V11.034V11.0666V11.0993V11.132V11.1648V11.1977V11.2306V11.2636V11.2966V11.3297V11.3629V11.3961V11.4294V11.4627V11.4961V11.5295V11.563V11.5966V11.6302V11.6638V11.6975V11.7313V11.7651V11.799V11.8329V11.8668V11.9008V11.9348V11.9689V12.003V12.0372V12.0714V12.1056V12.1399V12.1742V12.2086V12.243V12.2774V12.3119V12.3464V12.3809V12.4155V12.4501V12.4847V12.5194V12.5541V12.5888V12.6235V12.6583V12.6931V12.7279V12.7627V12.7976V12.8325V12.8674V12.9023V12.9373V12.9722V13.0072V13.0422V13.0772V13.1123V13.1473V13.1824V13.2174V13.2525V13.2876V13.3227V13.3578V13.3929V13.4281V13.4632V13.4983V13.5335V13.5686V13.6038V13.6389V13.6741V13.7092V13.7444V13.7795V13.8147V13.8498V13.885V13.9201V13.9553V13.9904V14.0255V14.0606V14.0957V14.1308V14.1659V14.201V14.236V14.2711V14.3061V14.3411V14.3761V14.4111V14.446V14.481V14.5159V14.5508V14.5857V14.6206V14.6554V14.6902V14.725V14.7598V14.7945V14.8292V14.8639V14.8986V14.9332V14.9678V15.0023V15.0369V15.0714V15.1058V15.1402V15.1746V15.209V15.2433V15.2776V15.3118V15.346V15.3802V15.4143V15.4484V15.4824V15.5164V15.5503V15.5842V15.6181V15.6519V15.6856V15.7193V15.753V15.7866V15.8201V15.8536V15.887V15.9204V15.9538V15.987V16.0202V16.0534V16.0865V16.1195V16.1525V16.1854V16.2183V16.2511V16.2838V16.3165V16.349V16.3816V16.414V16.4464V16.4787V16.511V16.5432V16.5753V16.6073V16.6393V16.6712V16.703V16.7347V16.7663V16.7979V16.8294V16.8608V16.8922V16.9234V16.9546V16.9857V17.0167V17.0476V17.0785V17.1092V17.1399V17.1704V17.2009V17.2313V17.2616V17.2918V17.322V17.352V17.3819V17.4117V17.4415V17.4711V17.5007V17.5301V17.5594V17.5887V17.6178V17.6469V17.6758V17.7046V17.7334V17.762V17.7905V17.8189V17.8472V17.8754V17.9035V17.9314V17.9593V17.987V18.0147V18.0422V18.0696V18.0969V18.1241V18.1511V18.178V18.2048V18.2315V18.2581V18.2846V18.3109V18.3371V18.3632V18.3891V18.4149V18.4406V18.4662V18.4916V18.517V18.5421V18.5672V18.5921V18.6169V18.6415V18.666V18.6904V18.7147V18.7388V18.7627V18.7865V18.8102V18.8338V18.8572V18.8804V18.9035V18.9265V18.9493V18.972V18.9945V19.0169V19.0392V19.0612V19.0832V19.105V19.1266V19.1481V19.1694V19.1906V19.2116V19.2324V19.2531V19.2737V19.294V19.3143V19.3343V19.3542V19.374V19.3935V19.4129V19.4322V19.4512V19.4702V19.4889V19.5075V19.5259V19.5441V19.5622V19.58V19.5978V19.6153V19.6327V19.6499V19.6669V19.6837V19.7004V19.7168V19.7331V19.7493V19.7652V19.781V19.7965V19.8119V19.8271V19.8421V19.8474C8.01723 19.9117 8.03432 19.9771 8.05173 20.0438C8.18479 20.5533 8.33634 21.1336 8.70854 21.8121C9.15088 22.6184 9.92171 23.5735 11.3854 24.4843L11.3994 24.4931C13.9987 26.1708 15.4215 26.7599 15.9918 26.9535C16.5481 26.751 17.9739 26.1273 20.6145 24.4843C22.0783 23.5735 22.8491 22.6184 23.2914 21.8121C23.6637 21.1336 23.8152 20.5533 23.9483 20.0437C23.9657 19.9771 23.9828 19.9117 24 19.8474V7.80723C23.9712 7.80066 23.9417 7.7939 23.9116 7.78696C23.3564 7.65902 22.5768 7.46753 21.6743 7.21225C20.0145 6.74283 17.9024 6.04767 15.9999 5.11925C14.0975 6.04767 11.9854 6.74283 10.3257 7.21225C9.42315 7.46752 8.64357 7.65902 8.0884 7.78696C8.05828 7.7939 8.0288 7.80066 8 7.80723Z" fill="#001E27"/>
</svg>
