<svg width="32" height="32" viewBox="0 0 32 32" fill="none" xmlns="http://www.w3.org/2000/svg">
<path fill-rule="evenodd" clip-rule="evenodd" d="M25.7071 4.29297L29 7.58601C29.7811 8.36707 29.781 9.63341 29 10.4144L25.7071 13.7072L24.2929 12.2929L26.5859 10.0001H26.5821H26.5707H26.5594H26.548H26.5367H26.5254H26.5141H26.5028H26.4916H26.4803H26.469H26.4578H26.4465H26.4353H26.4241H26.4129H26.4017H26.3905H26.3793H26.3681H26.357H26.3458H26.3347H26.3235H26.3124H26.3013H26.2902H26.2791H26.268H26.257H26.2459H26.2348H26.2238H26.2128H26.2017H26.1907H26.1797H26.1687H26.1577H26.1468H26.1358H26.1248H26.1139H26.103H26.092H26.0811H26.0702H26.0593H26.0484H26.0376H26.0267H26.0159H26.005H25.9942H25.9833H25.9725H25.9617H25.9509H25.9402H25.9294H25.9186H25.9079H25.8971H25.8864H25.8757H25.865H25.8543H25.8436H25.8329H25.8222H25.8116H25.8009H25.7903H25.7797H25.769H25.7584H25.7478H25.7372H25.7267H25.7161H25.7055H25.695H25.6845H25.6739H25.6634H25.6529H25.6424H25.632H25.6215H25.611H25.6006H25.5901H25.5797H25.5693H25.5589H25.5485H25.5381H25.5277H25.5174H25.507H25.4967H25.4863H25.476H25.4657H25.4554H25.4451H25.4348H25.4246H25.4143H25.4041H25.3938H25.3836H25.3734H25.3632H25.353H25.3428H25.3327H25.3225H25.3123H25.3022H25.2921H25.282H25.2719H25.2618H25.2517H25.2416H25.2316H25.2215H25.2115H25.2014H25.1914H25.1814H25.1714H25.1614H25.1515H25.1415H25.1316H25.1216H25.1117H25.1018H25.0919H25.082H25.0721H25.0622H25.0524H25.0425H25.0327H25.0229H25.0131H25.0033H24.9935H24.9837H24.9739H24.9642H24.9544H24.9447H24.935H24.9252H24.9156H24.9059H24.8962H24.8865H24.8769H24.8672H24.8576H24.848H24.8384H24.8288H24.8192H24.8096H24.8H24.7905H24.781H24.7714H24.7619H24.7524H24.7429H24.7334H24.724H24.7145H24.7051H24.6956H24.6862H24.6768H24.6674H24.658H24.6486H24.6393H24.6299H24.6206H24.6113H24.6019H24.5926H24.5833H24.5741H24.5648H24.5555H24.5463H24.5371H24.5278H24.5186H24.5094H24.5003H24.4911H24.4819H24.4728H24.4636H24.4545H24.4454H24.4363H24.4272H24.4181H24.4091H24.4H24.391H24.3819H24.3729H24.3639H24.3549H24.346H24.337H24.328H24.3191H24.3102H24.3012H24.2923H24.2834H24.2746H24.2657H24.2568H24.248H24.2392H24.2303H24.2215H24.2127H24.2039H24.1952H24.1864H24.1777H24.1689H24.1602H24.1515H24.1428H24.1341H24.1255H24.1168H24.1082H24.0995H24.0909H24.0823H24.0737H24.0651H24.0565H24.048H24.0394H24.0309H24.0224H24.0139H24.0054H23.9969H23.9884H23.98H23.9715H23.9631H23.9547H23.9463H23.9379H23.9295H23.9211H23.9128H23.9044H23.8961H23.8878H23.8795H23.8712H23.8629H23.8546H23.8464H23.8382H23.8299H23.8217H23.8135H23.8053H23.7971H23.789H23.7808H23.7727H23.7646H23.7565H23.7484H23.7403H23.7322H23.7242H23.7161H23.7081H23.7001H23.6921H23.6841H23.6761H23.6681H23.6602H23.6522H23.6443H23.6364H23.6285H23.6206H23.6127H23.6049H23.597H23.5892H23.5814H23.5736H23.5658H23.558H23.5502C22.6218 10.0001 21.7467 10.43 21.1784 11.1652L17.4405 16.0001L21.1784 20.835C21.7467 21.5702 22.6218 22.0001 23.5502 22.0001H23.558H23.5658H23.5736H23.5814H23.5892H23.597H23.6049H23.6127H23.6206H23.6285H23.6364H23.6443H23.6522H23.6602H23.6681H23.6761H23.6841H23.692H23.7001H23.7081H23.7161H23.7241H23.7322H23.7403H23.7484H23.7565H23.7646H23.7727H23.7808H23.789H23.7971H23.8053H23.8135H23.8217H23.8299H23.8381H23.8464H23.8546H23.8629H23.8712H23.8795H23.8878H23.8961H23.9044H23.9128H23.9211H23.9295H23.9379H23.9463H23.9547H23.9631H23.9715H23.98H23.9884H23.9969H24.0054H24.0139H24.0224H24.0309H24.0394H24.048H24.0565H24.0651H24.0737H24.0823H24.0909H24.0995H24.1081H24.1168H24.1254H24.1341H24.1428H24.1515H24.1602H24.1689H24.1777H24.1864H24.1952H24.2039H24.2127H24.2215H24.2303H24.2391H24.248H24.2568H24.2657H24.2745H24.2834H24.2923H24.3012H24.3101H24.3191H24.328H24.337H24.3459H24.3549H24.3639H24.3729H24.3819H24.391H24.4H24.4091H24.4181H24.4272H24.4363H24.4454H24.4545H24.4636H24.4728H24.4819H24.4911H24.5002H24.5094H24.5186H24.5278H24.5371H24.5463H24.5555H24.5648H24.5741H24.5833H24.5926H24.6019H24.6112H24.6206H24.6299H24.6393H24.6486H24.658H24.6674H24.6768H24.6862H24.6956H24.7051H24.7145H24.724H24.7334H24.7429H24.7524H24.7619H24.7714H24.7809H24.7905H24.8H24.8096H24.8192H24.8288H24.8384H24.848H24.8576H24.8672H24.8769H24.8865H24.8962H24.9059H24.9155H24.9252H24.935H24.9447H24.9544H24.9642H24.9739H24.9837H24.9935H25.0033H25.0131H25.0229H25.0327H25.0425H25.0524H25.0622H25.0721H25.082H25.0919H25.1018H25.1117H25.1216H25.1316H25.1415H25.1515H25.1614H25.1714H25.1814H25.1914H25.2014H25.2115H25.2215H25.2316H25.2416H25.2517H25.2618H25.2719H25.282H25.2921H25.3022H25.3123H25.3225H25.3326H25.3428H25.353H25.3632H25.3734H25.3836H25.3938H25.4041H25.4143H25.4246H25.4348H25.4451H25.4554H25.4657H25.476H25.4863H25.4967H25.507H25.5174H25.5277H25.5381H25.5485H25.5589H25.5693H25.5797H25.5901H25.6006H25.611H25.6215H25.632H25.6424H25.6529H25.6634H25.6739H25.6845H25.695H25.7055H25.7161H25.7267H25.7372H25.7478H25.7584H25.769H25.7796H25.7903H25.8009H25.8116H25.8222H25.8329H25.8436H25.8543H25.865H25.8757H25.8864H25.8971H25.9079H25.9186H25.9294H25.9402H25.9509H25.9617H25.9725H25.9833H25.9942H26.005H26.0158H26.0267H26.0376H26.0484H26.0593H26.0702H26.0811H26.092H26.103H26.1139H26.1248H26.1358H26.1468H26.1577H26.1687H26.1797H26.1907H26.2017H26.2128H26.2238H26.2348H26.2459H26.257H26.268H26.2791H26.2902H26.3013H26.3124H26.3235H26.3347H26.3458H26.357H26.3681H26.3793H26.3905H26.4017H26.4129H26.4241H26.4353H26.4465H26.4578H26.469H26.4803H26.4916H26.5028H26.5141H26.5254H26.5367H26.548H26.5594H26.5707H26.582H26.5858L24.2929 19.7072L25.7071 18.293L29 21.5858C29.781 22.3669 29.781 23.6332 29 24.4143L25.7071 27.7072L24.2929 26.293L26.5858 24.0001H26.582H26.5707H26.5594H26.548H26.5367H26.5254H26.5141H26.5028H26.4916H26.4803H26.469H26.4578H26.4465H26.4353H26.4241H26.4129H26.4017H26.3905H26.3793H26.3681H26.357H26.3458H26.3347H26.3235H26.3124H26.3013H26.2902H26.2791H26.268H26.257H26.2459H26.2348H26.2238H26.2128H26.2017H26.1907H26.1797H26.1687H26.1577H26.1468H26.1358H26.1248H26.1139H26.103H26.092H26.0811H26.0702H26.0593H26.0484H26.0376H26.0267H26.0158H26.005H25.9942H25.9833H25.9725H25.9617H25.9509H25.9402H25.9294H25.9186H25.9079H25.8971H25.8864H25.8757H25.865H25.8543H25.8436H25.8329H25.8222H25.8116H25.8009H25.7903H25.7796H25.769H25.7584H25.7478H25.7372H25.7267H25.7161H25.7055H25.695H25.6845H25.6739H25.6634H25.6529H25.6424H25.632H25.6215H25.611H25.6006H25.5901H25.5797H25.5693H25.5589H25.5485H25.5381H25.5277H25.5174H25.507H25.4967H25.4863H25.476H25.4657H25.4554H25.4451H25.4348H25.4246H25.4143H25.4041H25.3938H25.3836H25.3734H25.3632H25.353H25.3428H25.3326H25.3225H25.3123H25.3022H25.2921H25.282H25.2719H25.2618H25.2517H25.2416H25.2316H25.2215H25.2115H25.2014H25.1914H25.1814H25.1714H25.1614H25.1515H25.1415H25.1316H25.1216H25.1117H25.1018H25.0919H25.082H25.0721H25.0622H25.0524H25.0425H25.0327H25.0229H25.0131H25.0033H24.9935H24.9837H24.9739H24.9642H24.9544H24.9447H24.935H24.9252H24.9155H24.9059H24.8962H24.8865H24.8769H24.8672H24.8576H24.848H24.8384H24.8288H24.8192H24.8096H24.8H24.7905H24.7809H24.7714H24.7619H24.7524H24.7429H24.7334H24.724H24.7145H24.7051H24.6956H24.6862H24.6768H24.6674H24.658H24.6486H24.6393H24.6299H24.6206H24.6112H24.6019H24.5926H24.5833H24.5741H24.5648H24.5555H24.5463H24.5371H24.5278H24.5186H24.5094H24.5002H24.4911H24.4819H24.4728H24.4636H24.4545H24.4454H24.4363H24.4272H24.4181H24.4091H24.4H24.391H24.3819H24.3729H24.3639H24.3549H24.3459H24.337H24.328H24.3191H24.3101H24.3012H24.2923H24.2834H24.2745H24.2657H24.2568H24.248H24.2391H24.2303H24.2215H24.2127H24.2039H24.1952H24.1864H24.1777H24.1689H24.1602H24.1515H24.1428H24.1341H24.1254H24.1168H24.1081H24.0995H24.0909H24.0823H24.0737H24.0651H24.0565H24.048H24.0394H24.0309H24.0224H24.0139H24.0054H23.9969H23.9884H23.98H23.9715H23.9631H23.9547H23.9463H23.9379H23.9295H23.9211H23.9128H23.9044H23.8961H23.8878H23.8795H23.8712H23.8629H23.8546H23.8464H23.8381H23.8299H23.8217H23.8135H23.8053H23.7971H23.789H23.7808H23.7727H23.7646H23.7565H23.7484H23.7403H23.7322H23.7241H23.7161H23.7081H23.7001H23.692H23.6841H23.6761H23.6681H23.6602H23.6522H23.6443H23.6364H23.6285H23.6206H23.6127H23.6049H23.597H23.5892H23.5814H23.5736H23.5658H23.558H23.5502C22.0017 24.0001 20.5427 23.2826 19.5961 22.0582L16.1765 17.635L12.7568 22.0582C11.81 23.283 10.3492 24.0001 8.80113 24.0001H3V22.0001H8.80113C9.72997 22.0001 10.6064 21.5698 11.1745 20.835L14.9125 16.0001L11.1745 11.1652C10.6064 10.4303 9.72996 10.0001 8.80112 10.0001H3V8.00006H8.80112C10.3492 8.00006 11.81 8.71714 12.7568 9.94188L16.1765 14.3651L19.5961 9.94188C20.5427 8.71748 22.0017 8.00006 23.5502 8.00006H23.558H23.5658H23.5736H23.5814H23.5892H23.597H23.6049H23.6127H23.6206H23.6285H23.6364H23.6443H23.6522H23.6602H23.6681H23.6761H23.6841H23.6921H23.7001H23.7081H23.7161H23.7242H23.7322H23.7403H23.7484H23.7565H23.7646H23.7727H23.7808H23.789H23.7971H23.8053H23.8135H23.8217H23.8299H23.8382H23.8464H23.8546H23.8629H23.8712H23.8795H23.8878H23.8961H23.9044H23.9128H23.9211H23.9295H23.9379H23.9463H23.9547H23.9631H23.9715H23.98H23.9884H23.9969H24.0054H24.0139H24.0224H24.0309H24.0394H24.048H24.0565H24.0651H24.0737H24.0823H24.0909H24.0995H24.1082H24.1168H24.1255H24.1341H24.1428H24.1515H24.1602H24.1689H24.1777H24.1864H24.1952H24.2039H24.2127H24.2215H24.2303H24.2392H24.248H24.2568H24.2657H24.2746H24.2834H24.2923H24.3012H24.3102H24.3191H24.328H24.337H24.346H24.3549H24.3639H24.3729H24.3819H24.391H24.4H24.4091H24.4181H24.4272H24.4363H24.4454H24.4545H24.4636H24.4728H24.4819H24.4911H24.5003H24.5094H24.5186H24.5278H24.5371H24.5463H24.5555H24.5648H24.5741H24.5833H24.5926H24.6019H24.6113H24.6206H24.6299H24.6393H24.6486H24.658H24.6674H24.6768H24.6862H24.6956H24.7051H24.7145H24.724H24.7334H24.7429H24.7524H24.7619H24.7714H24.781H24.7905H24.8H24.8096H24.8192H24.8288H24.8384H24.848H24.8576H24.8672H24.8769H24.8865H24.8962H24.9059H24.9156H24.9252H24.935H24.9447H24.9544H24.9642H24.9739H24.9837H24.9935H25.0033H25.0131H25.0229H25.0327H25.0425H25.0524H25.0622H25.0721H25.082H25.0919H25.1018H25.1117H25.1216H25.1316H25.1415H25.1515H25.1614H25.1714H25.1814H25.1914H25.2014H25.2115H25.2215H25.2316H25.2416H25.2517H25.2618H25.2719H25.282H25.2921H25.3022H25.3123H25.3225H25.3327H25.3428H25.353H25.3632H25.3734H25.3836H25.3938H25.4041H25.4143H25.4246H25.4348H25.4451H25.4554H25.4657H25.476H25.4863H25.4967H25.507H25.5174H25.5277H25.5381H25.5485H25.5589H25.5693H25.5797H25.5901H25.6006H25.611H25.6215H25.632H25.6424H25.6529H25.6634H25.6739H25.6845H25.695H25.7055H25.7161H25.7267H25.7372H25.7478H25.7584H25.769H25.7797H25.7903H25.8009H25.8116H25.8222H25.8329H25.8436H25.8543H25.865H25.8757H25.8864H25.8971H25.9079H25.9186H25.9294H25.9402H25.9509H25.9617H25.9725H25.9833H25.9942H26.005H26.0159H26.0267H26.0376H26.0484H26.0593H26.0702H26.0811H26.092H26.103H26.1139H26.1248H26.1358H26.1468H26.1577H26.1687H26.1797H26.1907H26.2017H26.2128H26.2238H26.2348H26.2459H26.257H26.268H26.2791H26.2902H26.3013H26.3124H26.3235H26.3347H26.3458H26.357H26.3681H26.3793H26.3905H26.4017H26.4129H26.4241H26.4353H26.4465H26.4578H26.469H26.4803H26.4916H26.5028H26.5141H26.5254H26.5367H26.548H26.5594H26.5707H26.5821H26.5857L24.2929 5.70715L25.7071 4.29297Z" fill="#001E27"/>
</svg>
 