<svg width="24" height="24" viewBox="0 0 24 24" fill="none" xmlns="http://www.w3.org/2000/svg">
<path fill-rule="evenodd" clip-rule="evenodd" d="M12 5C10.5064 4.99995 8.72866 5.00417 7.20049 5.0699C6.43724 5.10274 5.7187 5.15158 5.11967 5.22581C4.56554 5.29447 3.97307 5.39908 3.56038 5.60544C2.96331 5.904 2.65846 6.48688 2.49022 6.94256C2.3096 7.43175 2.20327 8.00459 2.13588 8.56873C2.00066 9.70084 2 11.0119 2 11.9998V11.9998C2 12.9876 2.00066 14.2987 2.13589 15.4308C2.20328 15.995 2.30961 16.5678 2.49023 17.057C2.65847 17.5127 2.96332 18.0956 3.56039 18.3942C3.97308 18.6005 4.56555 18.7051 5.11968 18.7738C5.71871 18.848 6.43726 18.8969 7.2005 18.9297C8.72867 18.9954 10.5064 18.9997 12 18.9996L12.0038 18.9996L12.0076 18.9996C13.5012 18.9997 15.2789 18.9954 16.8071 18.9297C17.5704 18.8969 18.2889 18.848 18.8879 18.7738C19.4421 18.7051 20.0345 18.6005 20.4472 18.3942C21.0451 18.0952 21.3493 17.5114 21.5168 17.0555C21.6966 16.5661 21.8018 15.9931 21.8681 15.429C22 14.3081 22 13.0108 22 12.0277V12.0277V11.9997V11.972V11.972C22 10.9889 22 9.69148 21.8681 8.57046C21.8017 8.00645 21.6965 7.43348 21.5167 6.94408C21.3493 6.48819 21.045 5.90439 20.4472 5.60544C20.0345 5.39908 19.442 5.29447 18.8879 5.22581C18.2889 5.15158 17.5703 5.10274 16.8071 5.0699C15.2789 5.00417 13.5012 4.99995 12.0076 5L12.0038 5.00001L12 5ZM12.0076 16.9996L12.0038 16.9996L12 16.9996C10.5013 16.9997 8.7652 16.9952 7.28646 16.9315C6.54624 16.8997 5.88806 16.8537 5.36563 16.789C5.10441 16.7566 4.89012 16.7211 4.72364 16.6839C4.641 16.6654 4.57651 16.6479 4.52806 16.6324C4.51322 16.6276 4.50065 16.6233 4.49016 16.6195C4.47031 16.5921 4.42382 16.5197 4.36643 16.3643C4.26437 16.0879 4.1813 15.692 4.12177 15.1936C4.00318 14.2008 4 13.0119 4 11.9998V11.9998C4 10.9876 4.00317 9.79878 4.12177 8.80594C4.18129 8.3076 4.26436 7.91171 4.36642 7.63528C4.42381 7.47985 4.4703 7.40749 4.49014 7.3801C4.50063 7.37629 4.51321 7.37198 4.52805 7.36723C4.5765 7.35174 4.64099 7.33423 4.72363 7.31574C4.89011 7.27849 5.1044 7.24299 5.36561 7.21063C5.88804 7.14589 6.54623 7.0999 7.28644 7.06806C8.76519 7.00445 10.5013 6.99995 11.9999 7L12.0038 6.99999L12.0076 7C13.5063 6.99995 15.2424 7.00445 16.7211 7.06806C17.4613 7.0999 18.1195 7.14589 18.642 7.21063C18.9032 7.24299 19.1175 7.27849 19.2839 7.31574C19.3666 7.33423 19.4311 7.35174 19.4795 7.36723C19.4942 7.37191 19.5066 7.37617 19.517 7.37994C19.5369 7.40754 19.5828 7.47969 19.6394 7.63375C19.7409 7.90995 19.8232 8.30571 19.8818 8.80417C19.9987 9.79751 20 10.9861 20 11.9997C20 13.0133 19.9987 14.202 19.8818 15.1954C19.8232 15.6938 19.7409 16.0896 19.6394 16.3659C19.5828 16.5199 19.5369 16.5921 19.517 16.6197C19.5066 16.6234 19.4942 16.6277 19.4796 16.6324C19.4311 16.6479 19.3666 16.6654 19.284 16.6839C19.1175 16.7211 18.9032 16.7566 18.642 16.789C18.1196 16.8537 17.4614 16.8997 16.7212 16.9315C15.2424 16.9952 13.5063 16.9997 12.0076 16.9996ZM10.5145 8.14226C10.2056 7.9569 9.82081 7.95205 9.5073 8.12956C9.19379 8.30706 9 8.63948 9 8.99976V14.9998C9 15.0431 9.00281 15.086 9.00829 15.1284C9.04836 15.4378 9.23151 15.7138 9.5073 15.87C9.75754 16.0116 10.0532 16.0371 10.3194 15.9474C10.3867 15.9247 10.4522 15.8947 10.5145 15.8572L15.5145 12.8572C15.8157 12.6765 16 12.351 16 11.9998C16 11.6485 15.8157 11.323 15.5145 11.1423L10.5145 8.14226ZM11 13.2336V10.7659L13.0563 11.9998L11 13.2336Z" fill="white"/>
</svg>
