<svg width="120" height="33" viewBox="0 0 120 33" fill="none" xmlns="http://www.w3.org/2000/svg">
<path d="M41.3879 16.2186C41.88 16.4964 42.5845 16.7433 43.5029 16.9558C44.4213 17.1697 45.3616 17.2769 46.3238 17.2769C47.2641 17.2769 48.1299 17.1589 48.9196 16.925C49.709 16.6906 50.3898 16.3458 50.9564 15.8975C51.5211 15.4493 51.9656 14.912 52.2871 14.2798C52.6063 13.6502 52.768 12.9387 52.768 12.1489C52.768 11.1867 52.4829 10.3317 51.9167 9.58386C51.3501 8.83599 50.4043 8.24978 49.0795 7.82115L46.4836 6.98801C45.5014 6.66654 44.8277 6.33098 44.4647 5.97874C44.1017 5.62649 43.9204 5.19268 43.9204 4.68062C43.9204 3.9309 44.2089 3.38659 44.7862 3.0451C45.3616 2.70398 46.1747 2.53157 47.2222 2.53157C48.524 2.53157 49.702 2.76739 50.7476 3.23754C51.0668 3.38659 51.303 3.4626 51.4521 3.4626C51.7298 3.4626 51.8677 3.26868 51.8677 2.88381V2.01952C51.8677 1.76368 51.8151 1.56012 51.7094 1.41143C51.6008 1.2609 51.4191 1.11184 51.1651 0.961306C50.9708 0.856003 50.7168 0.748844 50.3954 0.641689C50.0739 0.534533 49.7276 0.438499 49.3535 0.35322C48.9793 0.266087 48.5856 0.197121 48.1681 0.14447C47.7506 0.0899639 47.3383 0.0643806 46.9337 0.0643806C46.1206 0.0643806 45.3509 0.171537 44.6245 0.383995C43.8985 0.598307 43.263 0.914215 42.7183 1.32986C42.1721 1.74736 41.7346 2.25014 41.4043 2.83635C41.072 3.42478 40.907 4.10183 40.907 4.87121C40.907 5.83339 41.2118 6.71919 41.8218 7.53269C42.4298 8.34581 43.4065 8.96502 44.7535 9.39142L47.4128 10.2246C48.3116 10.5242 48.9271 10.8456 49.2574 11.1867C49.5878 11.5297 49.7528 11.9546 49.7528 12.4704C49.7528 13.2164 49.4387 13.7952 48.8069 14.2001C48.1773 14.605 47.286 14.8082 46.131 14.8082C45.405 14.8082 44.679 14.7355 43.9512 14.585C43.2252 14.4344 42.5533 14.2201 41.9326 13.9424C41.7402 13.859 41.5841 13.7952 41.4677 13.7518C41.3498 13.7081 41.2374 13.6884 41.1302 13.6884C40.8525 13.6884 40.7146 13.879 40.7146 14.2639V15.1931C40.7146 15.3655 40.7528 15.536 40.8269 15.707C40.9015 15.8775 41.0902 16.0481 41.3879 16.2186Z" fill="#1C424A"/>
<path d="M12.5082 10.5455C12.5082 11.1643 12.45 11.6945 12.3321 12.1321C12.2124 12.5714 12.0055 12.9619 11.7077 13.303C11.2157 13.8584 10.6384 14.2489 9.9758 14.4721C9.31321 14.6971 8.68325 14.8095 8.08444 14.8095C7.25092 14.8095 6.6102 14.59 6.16193 14.1528C5.71365 13.7131 5.48859 13.0668 5.48859 12.2121C5.48859 11.2952 5.78781 10.5892 6.38699 10.0972C6.98432 9.60517 7.892 9.36008 9.11002 9.36008C9.66545 9.36008 10.2372 9.39642 10.8253 9.4728C11.4118 9.54733 11.9728 9.64892 12.5082 9.77573V10.5455ZM10.4078 7.32337C9.73442 7.22734 9.08814 7.17988 8.46894 7.17988C6.59055 7.17988 5.09259 7.6556 3.98173 8.60665C2.87086 9.55623 2.31543 10.8124 2.31543 12.3734C2.31543 13.8458 2.76371 15.0238 3.66248 15.8988C4.55903 16.7739 5.77706 17.2129 7.31655 17.2129C9.47302 17.2129 11.2702 16.369 12.7007 14.679C12.8931 15.0876 13.08 15.445 13.2617 15.7535C13.443 16.0642 13.6629 16.3471 13.9187 16.6033C14.0893 16.7739 14.2706 16.861 14.463 16.861C14.6139 16.861 14.7737 16.8065 14.9443 16.7012L16.0989 15.9315C16.3329 15.7591 16.4511 15.5792 16.4511 15.3853C16.4511 15.2581 16.4074 15.1183 16.324 14.9693C16.0663 14.4991 15.8683 14.0601 15.7303 13.6552C15.5906 13.2503 15.5216 12.7038 15.5216 12.0212V6.05789C15.5216 4.04862 15.0132 2.54732 13.9984 1.55437C12.9821 0.561411 11.3863 0.0656738 9.20791 0.0656738C8.20234 0.0656738 7.25092 0.1821 6.35251 0.416435C5.45559 0.652252 4.68621 0.92997 4.04698 1.25144C3.78929 1.37825 3.61873 1.50542 3.53345 1.63594C3.4478 1.76312 3.40442 1.97743 3.40442 2.27517V3.17172C3.40442 3.55659 3.53345 3.75088 3.78929 3.75088C3.85269 3.75088 3.9491 3.73457 4.07813 3.70194C4.20679 3.67079 4.41925 3.58922 4.71884 3.46204C5.35955 3.20472 6.01658 2.9956 6.69029 2.83616C7.36363 2.67821 8.02066 2.59627 8.66137 2.59627C10.0722 2.59627 11.0648 2.87955 11.6425 3.4461C12.2194 4.01229 12.5082 4.98893 12.5082 6.37751V7.72456C11.7823 7.554 11.0815 7.42163 10.4078 7.32337Z" fill="#1C424A"/>
<path d="M21.7072 15.8985C21.8143 16.2633 21.9411 16.5029 22.092 16.6189C22.2426 16.7372 22.4769 16.7954 22.798 16.7954H24.3683C24.7098 16.7954 24.9545 16.7316 25.1054 16.6045C25.2541 16.4758 25.372 16.2289 25.4576 15.8659L28.2785 4.07015L31.1302 15.8659C31.2155 16.2289 31.3334 16.4758 31.4843 16.6045C31.633 16.7316 31.8781 16.7954 32.2211 16.7954H33.7895C34.1109 16.7954 34.3468 16.7372 34.4958 16.6189C34.6464 16.5029 34.7735 16.2633 34.8807 15.8985L39.3026 1.73014C39.3698 1.53956 39.4098 1.38902 39.4335 1.28187C39.4532 1.17471 39.4643 1.08016 39.4643 0.993029C39.4643 0.69529 39.3153 0.544752 39.016 0.544752H37.3167C36.9738 0.544752 36.7339 0.60445 36.5959 0.720875C36.4561 0.838784 36.3345 1.08016 36.2277 1.44168L33.0546 13.7183L30.168 1.44168C30.0846 1.08016 29.9649 0.838784 29.8162 0.720875C29.6671 0.60445 29.422 0.544752 29.0809 0.544752H27.6048C27.2637 0.544752 27.0168 0.60445 26.8677 0.720875C26.7172 0.838784 26.6011 1.08016 26.5158 1.44168L23.6619 13.5585L20.5852 1.44168C20.4784 1.08016 20.3564 0.838784 20.2166 0.720875C20.0772 0.60445 19.8373 0.544752 19.4943 0.544752H17.7008C17.4013 0.544752 17.2522 0.69529 17.2522 0.993029C17.2522 1.12206 17.3048 1.36863 17.412 1.73014L21.7072 15.8985Z" fill="#1C424A"/>
<path d="M48.912 24.7746C42.1519 27.6426 34.8033 29.03 28.1196 29.03C18.2116 29.03 8.61793 26.3107 0.863006 21.7957C0.18225 21.4034 -0.320531 22.099 0.2438 22.6088C7.43253 29.1005 16.9357 33 27.4859 33C35.0139 33 43.7585 30.6344 49.7885 26.1854C50.7852 25.4464 49.932 24.3426 48.912 24.7746Z" fill="#1C424A"/>
<path d="M45.1055 22.267C44.5735 22.6392 44.6661 23.1546 45.2561 23.0838C47.1986 22.8495 51.526 22.3304 52.2976 23.3178C53.0692 24.3074 51.4392 28.3771 50.711 30.1943C50.4915 30.7442 50.9654 30.9678 51.4626 30.5503C54.6977 27.8435 55.5342 22.1743 54.8716 21.3537C54.2145 20.5406 48.5583 19.8435 45.1055 22.267Z" fill="#1C424A"/>
<path d="M72.3366 9.4029C73.1319 9.4029 73.7326 9.1415 74.1337 8.6224C74.5383 8.10331 74.7396 7.328 74.7396 6.29871C74.7396 4.24012 73.9576 3.21083 72.3944 3.21083C71.5883 3.21083 70.7826 3.5234 69.9766 4.14409V8.4118C70.374 8.75329 70.7626 9.00172 71.1401 9.16338C71.5197 9.32318 71.9191 9.4029 72.3366 9.4029ZM69.3629 13.001C69.2179 13.001 69.1453 12.9283 69.1453 12.783V2.89159C69.1453 2.74624 69.2179 2.67208 69.3629 2.67208H69.6406C69.7967 2.67208 69.8787 2.74624 69.8879 2.89159L69.9476 3.48855C70.3944 3.12926 70.8282 2.866 71.2509 2.70101C71.674 2.53749 72.1097 2.45407 72.5561 2.45407C73.4964 2.45407 74.239 2.79148 74.7852 3.46519C75.3262 4.14224 75.5987 5.06623 75.5987 6.24272C75.5987 7.43516 75.3136 8.38807 74.7396 9.09812C74.1664 9.80594 73.3966 10.16 72.4233 10.16C71.5286 10.16 70.7155 9.83153 69.9766 9.17079V12.783C69.9766 12.9283 69.9039 13.001 69.7571 13.001H69.3629Z" fill="#1C424A"/>
<path d="M79.3282 9.40253C79.6967 9.40253 80.0961 9.328 80.5247 9.17561C80.9492 9.02693 81.3831 8.81447 81.8206 8.54417V6.7214C81.1691 6.54713 80.5373 6.46 79.9274 6.46C78.5677 6.46 77.887 6.9828 77.887 8.03212C77.887 8.48039 78.0082 8.82003 78.2499 9.05399C78.4932 9.28462 78.8528 9.40253 79.3282 9.40253ZM79.2121 10.1597C78.5421 10.1597 78.0101 9.96909 77.6167 9.58607C77.2225 9.20119 77.0264 8.68914 77.0264 8.04843C77.0264 7.33875 77.2696 6.77961 77.7546 6.37287C78.2407 5.96463 78.8999 5.75922 79.7368 5.75922C80.3864 5.75922 81.0816 5.87194 81.8206 6.09515V4.87157C81.8206 4.2798 81.6789 3.85525 81.3975 3.59533C81.1161 3.33949 80.6497 3.21046 80 3.21046C79.3371 3.21046 78.6293 3.33208 77.8725 3.57568C77.7835 3.6046 77.7108 3.61906 77.6526 3.61906C77.5566 3.61906 77.5076 3.55751 77.5076 3.43033V3.196C77.5076 3.11814 77.5221 3.05807 77.551 3.01469C77.5799 2.96908 77.6311 2.93274 77.6982 2.90382C78.4643 2.60423 79.2755 2.45369 80.1306 2.45369C80.9856 2.45369 81.6174 2.63352 82.0293 2.99281C82.445 3.35247 82.6504 3.89493 82.6504 4.62277V9.78036C82.6504 9.92719 82.5777 9.99986 82.4324 9.99986H82.1257C81.9804 9.99986 81.9022 9.92719 81.8914 9.78036L81.8354 9.15411C80.9982 9.82559 80.125 10.1597 79.2121 10.1597Z" fill="#1C424A"/>
<path d="M85.1118 9.99951C84.9665 9.99951 84.8923 9.92684 84.8923 9.78001V2.89087C84.8923 2.74589 84.9665 2.67136 85.1118 2.67136H85.3896C85.5457 2.67136 85.6276 2.74589 85.6365 2.89087L85.711 3.73477C86.0792 3.32654 86.4407 3.03955 86.7944 2.86751C87.1504 2.69843 87.5497 2.61315 87.9961 2.61315C88.1526 2.61315 88.2776 2.61871 88.3758 2.62761C88.5208 2.63688 88.5938 2.7166 88.5938 2.86195V3.22494C88.5938 3.26462 88.5794 3.30132 88.5497 3.33358C88.5208 3.36843 88.4811 3.3866 88.434 3.3866C88.3558 3.3866 88.2831 3.38289 88.216 3.37919C88.1474 3.37363 88.0455 3.37029 87.9094 3.37029C87.4626 3.37029 87.067 3.45371 86.7221 3.61908C86.3769 3.78408 86.0451 4.05105 85.7236 4.4196V9.78001C85.7236 9.92684 85.651 9.99951 85.5056 9.99951H85.1118Z" fill="#1C424A"/>
<path d="M92.4543 10.0869C91.8807 10.0869 91.445 9.9323 91.1435 9.62751C90.8402 9.32236 90.6916 8.87965 90.6916 8.29492V3.40096H89.5425C89.3957 3.40096 89.323 3.32829 89.323 3.18146V3.03611C89.323 2.95825 89.3356 2.90003 89.3664 2.86221C89.3957 2.82217 89.4535 2.79844 89.5425 2.78732L90.7205 2.68609L90.8243 0.763585C90.8332 0.687203 90.8551 0.631216 90.8877 0.596362C90.9222 0.56225 90.973 0.545936 91.0419 0.545936H91.3034C91.4506 0.545936 91.521 0.618238 91.521 0.763585V2.67126H93.6345C93.7794 2.67126 93.8521 2.74579 93.8521 2.88928V3.18146C93.8521 3.32829 93.7794 3.40096 93.6345 3.40096H91.521V8.25339C91.521 8.64902 91.6067 8.93044 91.7754 9.09581C91.9478 9.26266 92.2292 9.34275 92.6285 9.34275C92.91 9.34275 93.1584 9.31902 93.3731 9.27008C93.4784 9.25191 93.5633 9.23374 93.6271 9.22114C93.6905 9.20482 93.7361 9.19741 93.765 9.19741C93.8718 9.19741 93.9266 9.25747 93.9266 9.37353V9.59118C93.9266 9.75655 93.8718 9.86 93.765 9.89633C93.3875 10.025 92.9519 10.0869 92.4543 10.0869Z" fill="#1C424A"/>
<path d="M95.6884 9.99951C95.5427 9.99951 95.4685 9.92684 95.4685 9.78001V2.89087C95.4685 2.74589 95.5427 2.67137 95.6884 2.67137H95.9806C96.1348 2.67137 96.2182 2.74589 96.2275 2.89087L96.2853 3.51712C96.7611 3.17786 97.262 2.9146 97.7866 2.72958C98.3113 2.54604 98.8211 2.45149 99.315 2.45149C100.025 2.45149 100.566 2.64022 100.94 3.01434C101.314 3.38809 101.501 3.94018 101.501 4.66803V9.78001C101.501 9.92684 101.428 9.99951 101.283 9.99951H100.891C100.744 9.99951 100.669 9.92684 100.669 9.78001V5.01842C100.669 4.38661 100.551 3.92758 100.308 3.64059C100.063 3.35583 99.6765 3.21234 99.1411 3.21234C98.1697 3.21234 97.2242 3.52268 96.2998 4.14337V9.78001C96.2998 9.92684 96.2275 9.99951 96.0821 9.99951H95.6884Z" fill="#1C424A"/>
<path d="M108.639 5.80423C108.648 5.66815 108.655 5.50834 108.655 5.32332C108.655 4.62403 108.483 4.09603 108.143 3.73452C107.804 3.37709 107.303 3.19763 106.642 3.19763C105.109 3.19763 104.297 4.06526 104.212 5.80423H108.639ZM106.847 10.2173C105.691 10.2173 104.821 9.89063 104.241 9.23508C103.658 8.57768 103.365 7.60475 103.365 6.31406C103.365 5.09084 103.66 4.14127 104.246 3.46607C104.834 2.79088 105.657 2.45309 106.716 2.45309C107.601 2.45309 108.278 2.70708 108.75 3.21023C109.218 3.71672 109.456 4.44086 109.456 5.38117C109.456 5.76975 109.434 6.06192 109.396 6.25621C109.367 6.40119 109.283 6.47609 109.149 6.47609H104.212C104.221 7.49426 104.444 8.24769 104.879 8.7323C105.317 9.21877 105.992 9.46015 106.907 9.46015C107.606 9.46015 108.271 9.34038 108.9 9.09715C109.027 9.04821 109.114 9.02448 109.163 9.02448C109.203 9.02448 109.236 9.04079 109.265 9.07342C109.294 9.1079 109.311 9.1498 109.311 9.19874V9.41677C109.311 9.57286 109.254 9.67446 109.149 9.7234C108.448 10.0519 107.683 10.2173 106.847 10.2173Z" fill="#1C424A"/>
<path d="M111.508 9.99951C111.363 9.99951 111.289 9.92684 111.289 9.78001V2.89087C111.289 2.74589 111.363 2.67136 111.508 2.67136H111.786C111.942 2.67136 112.024 2.74589 112.033 2.89087L112.107 3.73477C112.474 3.32654 112.837 3.03955 113.191 2.86751C113.547 2.69843 113.946 2.61315 114.393 2.61315C114.549 2.61315 114.674 2.61871 114.772 2.62761C114.917 2.63688 114.99 2.7166 114.99 2.86195V3.22494C114.99 3.26462 114.976 3.30132 114.946 3.33358C114.917 3.36843 114.877 3.3866 114.83 3.3866C114.752 3.3866 114.68 3.38289 114.612 3.37919C114.544 3.37363 114.442 3.37029 114.306 3.37029C113.859 3.37029 113.463 3.45371 113.119 3.61908C112.774 3.78408 112.439 4.05105 112.12 4.4196V9.78001C112.12 9.92684 112.048 9.99951 111.902 9.99951H111.508Z" fill="#1C424A"/>
<path d="M69.3637 26.1826C69.2183 26.1826 69.1438 26.1103 69.1438 25.9631V19.074C69.1438 18.929 69.2183 18.8541 69.3637 18.8541H69.6559C69.8101 18.8541 69.8939 18.929 69.9028 19.074L69.9625 19.7002C70.4367 19.361 70.9373 19.0977 71.4619 18.9127C71.9866 18.7288 72.4968 18.635 72.9907 18.635C73.7004 18.635 74.2413 18.8233 74.6155 19.1974C74.9892 19.5712 75.1765 20.1233 75.1765 20.8511V25.9631C75.1765 26.1103 75.1034 26.1826 74.9584 26.1826H74.5661C74.4193 26.1826 74.3452 26.1103 74.3452 25.9631V21.2012C74.3452 20.5697 74.2269 20.1107 73.9818 19.8237C73.7404 19.5386 73.3518 19.3951 72.8164 19.3951C71.845 19.3951 70.8995 19.7054 69.9751 20.3265V25.9631C69.9751 26.1103 69.9028 26.1826 69.7574 26.1826H69.3637Z" fill="#1C424A"/>
<path d="M82.3146 21.9872C82.3235 21.8511 82.331 21.691 82.331 21.5059C82.331 20.807 82.1585 20.279 81.8193 19.9175C81.4796 19.5601 80.9783 19.3806 80.318 19.3806C78.7841 19.3806 77.9724 20.2482 77.8875 21.9872H82.3146ZM80.523 26.3999C79.3666 26.3999 78.4971 26.0736 77.9164 25.4181C77.3336 24.7607 77.041 23.7877 77.041 22.497C77.041 21.2738 77.3354 20.3243 77.9216 19.6487C78.5097 18.9739 79.3321 18.6361 80.3921 18.6361C81.2761 18.6361 81.9516 18.8901 82.4255 19.3932C82.8938 19.8993 83.1315 20.6239 83.1315 21.5642C83.1315 21.9524 83.11 22.2449 83.0718 22.4392C83.0425 22.5842 82.9591 22.6591 82.8248 22.6591H77.8875C77.8964 23.6772 78.1178 24.4307 78.5553 24.9149C78.9928 25.4018 79.668 25.6431 80.5809 25.6431C81.282 25.6431 81.9461 25.5234 82.576 25.2801C82.7032 25.2312 82.7904 25.2075 82.8393 25.2075C82.879 25.2075 82.9116 25.2238 82.9409 25.2564C82.9702 25.2909 82.9865 25.3324 82.9865 25.3817V25.5994C82.9865 25.7555 82.9301 25.8574 82.8248 25.9064C82.1241 26.2349 81.358 26.3999 80.523 26.3999Z" fill="#1C424A"/>
<path d="M87.2235 26.27C86.6499 26.27 86.2143 26.1158 85.9132 25.811C85.6095 25.5058 85.4608 25.0628 85.4608 24.4784V19.5844H84.3103C84.165 19.5844 84.0923 19.5118 84.0923 19.3646V19.2192C84.0923 19.1414 84.1049 19.0831 84.1357 19.0453C84.165 19.0053 84.2228 18.9819 84.3103 18.9708L85.4898 18.8692L85.5936 16.9467C85.6025 16.8703 85.6244 16.8143 85.657 16.7795C85.6915 16.7454 85.7423 16.729 85.8112 16.729H86.0726C86.2198 16.729 86.2903 16.8017 86.2903 16.9467V18.8547H88.4037C88.5487 18.8547 88.6214 18.9289 88.6214 19.0724V19.3646C88.6214 19.5118 88.5487 19.5844 88.4037 19.5844H86.2903V24.4369C86.2903 24.8325 86.3759 25.1139 86.5446 25.2789C86.717 25.4458 86.9985 25.5259 87.3997 25.5259C87.6792 25.5259 87.9276 25.5025 88.1423 25.4532C88.2476 25.435 88.3325 25.4168 88.3963 25.4042C88.4597 25.3879 88.5053 25.3809 88.5342 25.3809C88.6414 25.3809 88.6959 25.4406 88.6959 25.5566V25.7747C88.6959 25.9397 88.6414 26.0431 88.5342 26.0794C88.1568 26.2085 87.7211 26.27 87.2235 26.27Z" fill="#1C424A"/>
<path d="M91.9734 26.1826C91.8373 26.1826 91.7446 26.1155 91.6957 25.9794L89.3794 19.2049C89.3393 19.0977 89.3215 19.0247 89.3215 18.985C89.3215 18.8997 89.3794 18.8541 89.4973 18.8541H89.9637C90.0891 18.8541 90.1729 18.9179 90.2107 19.045L92.2059 25.2223L93.9704 19.0577C94.0175 18.9234 94.1102 18.8541 94.2463 18.8541H94.7835C94.9196 18.8541 95.0119 18.9234 95.0594 19.0577L96.8095 25.2638L98.8499 19.045C98.8877 18.9179 98.9693 18.8541 99.0965 18.8541H99.5344C99.6501 18.8541 99.7083 18.8997 99.7083 18.985C99.7083 19.0247 99.6886 19.0977 99.6501 19.2049L97.2759 25.9794C97.2251 26.1155 97.1343 26.1826 96.9982 26.1826H96.5192C96.3831 26.1826 96.2885 26.1155 96.2411 25.9794L94.4784 19.7874L92.7305 25.9794C92.683 26.1155 92.5889 26.1826 92.4546 26.1826H91.9734Z" fill="#1C424A"/>
<path d="M104.065 25.6442C105.744 25.6442 106.584 24.6005 106.584 22.513C106.584 20.4344 105.744 19.3943 104.065 19.3943C102.384 19.3943 101.543 20.4344 101.543 22.513C101.543 24.6005 102.384 25.6442 104.065 25.6442ZM104.065 26.4014C102.997 26.4014 102.166 26.0599 101.572 25.3754C100.979 24.6895 100.685 23.7362 100.685 22.513C100.685 21.2875 100.979 20.3365 101.572 19.6576C102.166 18.9768 102.997 18.6376 104.065 18.6376C105.132 18.6376 105.963 18.9768 106.555 19.6576C107.149 20.3365 107.443 21.2875 107.443 22.513C107.443 23.7362 107.149 24.6895 106.555 25.3754C105.963 26.0599 105.132 26.4014 104.065 26.4014Z" fill="#1C424A"/>
<path d="M109.556 26.1826C109.41 26.1826 109.336 26.1103 109.336 25.9631V19.074C109.336 18.929 109.41 18.8541 109.556 18.8541H109.833C109.988 18.8541 110.071 18.929 110.08 19.074L110.153 19.9179C110.521 19.5096 110.884 19.2227 111.238 19.0506C111.594 18.8815 111.993 18.7963 112.44 18.7963C112.596 18.7963 112.721 18.8018 112.82 18.8107C112.965 18.82 113.038 18.8997 113.038 19.0451V19.408C113.038 19.4481 113.023 19.4844 112.993 19.5167C112.965 19.5512 112.925 19.5697 112.877 19.5697C112.8 19.5697 112.727 19.5656 112.66 19.5623C112.591 19.5567 112.489 19.553 112.353 19.553C111.906 19.553 111.51 19.6368 111.166 19.8018C110.821 19.9668 110.489 20.2338 110.167 20.6023V25.9631C110.167 26.1103 110.095 26.1826 109.949 26.1826H109.556Z" fill="#1C424A"/>
<path d="M114.567 26.1826C114.422 26.1826 114.347 26.1103 114.347 25.9631V15.6212C114.347 15.474 114.422 15.4017 114.567 15.4017H114.961C115.106 15.4017 115.178 15.474 115.178 15.6212V22.12L118.675 19.0013C118.771 18.9053 118.894 18.8541 119.04 18.8541H119.564C119.679 18.8541 119.741 18.8997 119.741 18.985C119.741 19.0362 119.686 19.1085 119.579 19.2049L116.054 22.3235L119.87 25.8489C119.956 25.9249 120 25.9902 120 26.0373C120 26.1337 119.944 26.1826 119.826 26.1826H119.2C119.082 26.1826 118.978 26.1392 118.878 26.0517L115.178 22.5994V25.9631C115.178 26.1103 115.106 26.1826 114.961 26.1826H114.567Z" fill="#1C424A"/>
</svg>
