<svg width="96" height="31" viewBox="0 0 96 31" fill="none" xmlns="http://www.w3.org/2000/svg">
<path fill-rule="evenodd" clip-rule="evenodd" d="M67.7647 0.802079H69.6523C70.2815 0.802079 70.4398 1.00505 70.4358 1.61395C70.4358 1.82845 70.4392 2.01031 70.4421 2.16593V2.16612V2.16629C70.4508 2.62619 70.4552 2.85683 70.3541 3.02359C70.2524 3.19135 70.0441 3.29445 69.6261 3.50129L69.6259 3.50143C69.4962 3.56559 69.3464 3.63973 69.1733 3.72888C68.879 3.88127 68.5867 4.03399 68.2947 4.18657L68.2933 4.18729C67.5667 4.56691 66.8419 4.94562 66.0923 5.31609C65.4387 5.6449 64.984 5.37292 64.9759 4.65035V1.62207C64.9759 1.06188 65.2276 0.810197 65.7878 0.810197C66.2808 0.798024 66.7738 0.79954 67.2686 0.801062C67.4337 0.80157 67.5991 0.802079 67.7647 0.802079ZM87.4403 20.5961H80.0482C79.3825 20.5961 79.3703 20.5961 79.5286 21.2699C79.776 22.4512 80.4061 23.5178 81.3213 24.3046C82.2365 25.0914 83.3857 25.5543 84.5907 25.6215C85.533 25.7283 86.4874 25.6357 87.3916 25.3496C88.2959 25.0636 89.1298 24.5906 89.8394 23.9613C90.5173 23.3686 90.6229 23.3645 91.4307 23.7948L94.0693 25.2034C94.666 25.5201 94.7309 25.9869 94.2641 26.4821C93.2043 27.6266 91.9149 28.5345 90.4803 29.1465C89.0456 29.7586 87.4979 30.061 85.9384 30.0341C83.5343 30.1103 81.1601 29.484 79.1065 28.2317C77.7221 27.4025 76.5463 26.267 75.6695 24.9123C74.7926 23.5576 74.2381 22.0199 74.0485 20.4174C73.7268 18.3336 73.9693 16.2015 74.7508 14.2432C75.2644 12.919 76.039 11.7116 77.0285 10.6927C78.0181 9.6739 79.2024 8.86442 80.511 8.31243C83.2174 7.06057 86.2907 6.8524 89.1412 7.72788C92.0355 8.61282 93.9191 10.5978 95.011 13.3704C95.7732 15.4466 96.1007 17.6573 95.9731 19.8654C95.9859 20.0287 95.9352 20.1907 95.8316 20.3177C95.7281 20.4447 95.5796 20.527 95.417 20.5473C95.2018 20.5899 94.9828 20.6103 94.7634 20.6082L87.4403 20.5961ZM84.9235 16.4596H90.0221L90.0693 16.4598C90.2773 16.4617 90.5031 16.4638 90.4767 16.147C90.3509 14.7262 89.9003 13.4516 88.7515 12.526C87.6714 11.6983 86.3311 11.2836 84.9722 11.3569C82.0576 11.3569 80.0239 13.0538 79.4921 15.9197C79.3947 16.4433 79.4069 16.4596 79.9589 16.4596H84.9235ZM70.4387 28.5147V18.6626L70.4509 8.72533C70.4509 7.8201 69.9962 7.53594 69.1843 7.94188C68.6728 8.20546 68.1664 8.47423 67.6592 8.74344C66.9791 9.10442 66.2975 9.46619 65.6 9.8173C65.3983 9.9032 65.2291 10.0509 65.1167 10.2391C65.0044 10.4273 64.9547 10.6463 64.9748 10.8646V17.2825V28.5431C64.9748 29.286 65.1778 29.493 65.9044 29.493H69.4726C70.2966 29.493 70.4387 29.3266 70.4387 28.5147ZM26.9398 18.6621V8.7248C26.9398 7.81551 27.3986 7.507 28.2023 7.93729C29.3741 8.54349 30.5419 9.15916 31.7055 9.7843C31.7628 9.82768 31.8282 9.85919 31.8978 9.87698C31.9675 9.89477 32.0399 9.89848 32.111 9.8879C32.1821 9.87731 32.2503 9.85264 32.3118 9.81533C32.3732 9.77803 32.4266 9.72883 32.4687 9.67064C34.0275 8.01036 36.0206 7.34868 38.233 7.23502C39.068 7.19052 39.9054 7.23953 40.7295 7.38116C42.2909 7.60523 43.7117 8.40614 44.7117 9.62598C44.9106 9.86549 45.0365 9.92637 45.3084 9.71529C47.6476 7.91606 50.5644 7.03524 53.5084 7.23908C55.1103 7.26789 56.6548 7.84047 57.8884 8.86282C58.9961 9.85191 59.7799 11.152 60.1373 12.5934C60.4466 13.7103 60.5996 14.8646 60.592 16.0235V28.5588C60.592 29.3707 60.4539 29.4884 59.6745 29.4925H56.0779C55.3432 29.4925 55.1402 29.2895 55.1362 28.5467V16.6284C55.1395 15.8197 54.9836 15.0183 54.6775 14.2699C54.097 12.8613 52.9725 12.2402 51.503 12.1631C48.767 12.0413 46.9809 13.6366 46.6318 16.4985C46.5682 16.9925 46.5371 17.4902 46.5384 17.9883V28.498C46.5384 29.3098 46.368 29.4925 45.5683 29.4925H41.9595C41.2775 29.4925 41.0745 29.2855 41.0745 28.5913V16.4985C41.0738 15.8968 40.9946 15.2977 40.8391 14.7164C40.4332 13.2185 39.5157 12.3539 37.9772 12.1915C36.3048 12.0129 34.7866 12.3863 33.65 13.7341C32.8577 14.6962 32.4358 15.91 32.4606 17.1561C32.4443 19.6379 32.4498 22.1214 32.4552 24.6044V24.6049C32.4579 25.846 32.4606 27.087 32.4606 28.3275C32.4727 28.5032 32.4727 28.6795 32.4606 28.8552C32.4613 28.9477 32.4417 29.0392 32.4033 29.1233C32.3648 29.2074 32.3083 29.2821 32.2379 29.3421C32.1675 29.4021 32.0848 29.4459 31.9956 29.4705C31.9065 29.495 31.813 29.4998 31.7218 29.4844H27.5853C27.0982 29.4844 26.9358 29.2611 26.9358 28.6725L26.9398 18.6621ZM2.98975 26.3188C5.36041 28.7747 8.33188 29.8464 11.7052 29.8464C12.6428 29.8741 13.58 29.7813 14.494 29.5703C17.9201 28.8031 20.583 26.9926 22.2068 23.8426C23.4017 21.4953 23.7666 18.8125 23.2419 16.2313C22.5193 12.1597 20.2542 9.27759 16.3816 7.76751C15.0456 7.27504 13.5763 7.28426 12.2466 7.79344C10.9169 8.30262 9.81723 9.27715 9.15188 10.536C8.72159 11.3154 8.83525 11.7822 9.53346 12.2206C11.6064 13.5061 13.6659 14.797 15.7118 16.0933C15.9694 16.2543 16.2273 16.4152 16.4855 16.5762C17.3461 17.1129 18.2082 17.6505 19.0608 18.2001C19.5966 18.5451 19.5601 19.016 19.008 19.3245L18.732 19.4625L9.26959 24.0902C8.71752 24.3784 8.16545 24.6463 7.60526 24.9021C7.52206 24.9514 7.42762 24.9787 7.33094 24.9813C7.23425 24.9839 7.13852 24.9618 7.05275 24.9171C6.96698 24.8724 6.89404 24.8066 6.84084 24.7258C6.78764 24.645 6.75593 24.552 6.74872 24.4555C6.72432 24.2821 6.71617 24.1068 6.72436 23.9319V13.8606C6.72762 13.2738 6.77277 12.687 6.81776 12.1023C6.82879 11.9589 6.83981 11.8157 6.8502 11.6726C6.92536 10.5885 7.14097 9.51869 7.49159 8.49007C7.56466 8.27087 7.64585 8.01513 7.39823 7.84464C7.17514 7.69103 6.99157 7.78784 6.806 7.88571C6.78559 7.89647 6.76516 7.90725 6.74466 7.9177C6.65921 7.9619 6.57805 8.01465 6.49806 8.06664C6.46785 8.08628 6.4378 8.10581 6.40775 8.12473C5.38362 8.78572 4.44313 9.56809 3.60678 10.4548C1.01285 13.1624 -0.399818 16.3003 0.0994836 20.1364C0.356718 22.459 1.37258 24.632 2.98975 26.3188Z" fill="#00E2F4"/>
</svg>
